<svg xmlns="http://www.w3.org/2000/svg" fill="none" viewBox="0 0 512 512"><path fill="#393D46" d="M0 0h512v512H0z"/><g filter="url(#a)"><path fill="#E5F4FF" fill-rule="evenodd" d="M402.17 152.3a15.65 15.65 0 1 0 0-31.3 15.65 15.65 0 0 0 0 31.3Zm-45.97 17.61a15.65 15.65 0 1 0 0-31.3 15.65 15.65 0 0 0 0 31.3Zm-13.7 79.24a15.65 15.65 0 1 1-31.3 0 15.65 15.65 0 0 1 31.3 0Zm-108.59 75.33a15.65 15.65 0 1 0 0-31.3 15.65 15.65 0 0 0 0 31.3Zm-53.8-10.76a15.65 15.65 0 1 1-31.3 0 15.65 15.65 0 0 1 31.3 0Zm-32.28 45a15.65 15.65 0 1 0-15.65-15.24 15.65 15.65 0 0 0-25.98 16.86 15.66 15.66 0 1 0 18.69 8.5 15.66 15.66 0 0 0 11.2-15.43 15.61 15.61 0 0 0 11.74 5.3Z" clip-rule="evenodd"/></g><defs><filter id="a" width="386.83" height="334" x="63" y="89" color-interpolation-filters="sRGB" filterUnits="userSpaceOnUse"><feFlood flood-opacity="0" result="BackgroundImageFix"/><feColorMatrix in="SourceAlpha" result="hardAlpha" values="0 0 0 0 0 0 0 0 0 0 0 0 0 0 0 0 0 0 127 0"/><feOffset/><feGaussianBlur stdDeviation="16"/><feComposite in2="hardAlpha" operator="out"/><feColorMatrix values="0 0 0 0 0.898039 0 0 0 0 0.956863 0 0 0 0 1 0 0 0 0.5 0"/><feBlend in2="BackgroundImageFix" result="effect1_dropShadow_80_1044"/><feBlend in="SourceGraphic" in2="effect1_dropShadow_80_1044" result="shape"/></filter></defs></svg>
