<svg xmlns="http://www.w3.org/2000/svg" fill="none" viewBox="0 0 512 512"><rect width="512" height="512" fill="#393D46" rx="256"/><g filter="url(#a)"><path fill="#E5F4FF" fill-rule="evenodd" d="M402.174 152.304c8.644 0 15.652-7.007 15.652-15.652 0-8.644-7.008-15.652-15.652-15.652-8.645 0-15.652 7.008-15.652 15.652 0 8.645 7.007 15.652 15.652 15.652Zm-45.978 17.609c8.644 0 15.652-7.008 15.652-15.652 0-8.645-7.008-15.652-15.652-15.652-8.645 0-15.653 7.007-15.653 15.652 0 8.644 7.008 15.652 15.653 15.652ZM342.5 249.152c0 8.645-7.008 15.652-15.652 15.652-8.645 0-15.652-7.007-15.652-15.652 0-8.644 7.007-15.652 15.652-15.652 8.644 0 15.652 7.008 15.652 15.652Zm-108.587 75.326c8.645 0 15.652-7.007 15.652-15.652 0-8.644-7.007-15.652-15.652-15.652-8.644 0-15.652 7.008-15.652 15.652 0 8.645 7.008 15.652 15.652 15.652Zm-53.804-10.761c0 8.645-7.008 15.653-15.652 15.653-8.645 0-15.653-7.008-15.653-15.653 0-8.644 7.008-15.652 15.653-15.652 8.644 0 15.652 7.008 15.652 15.652Zm-32.283 45c8.645 0 15.652-7.007 15.652-15.652 0-8.644-7.007-15.652-15.652-15.652-8.644 0-15.652 7.008-15.652 15.652 0 .139.002.276.005.414a15.613 15.613 0 0 0-11.744-5.305c-8.645 0-15.652 7.008-15.652 15.652 0 2.324.506 4.53 1.415 6.513C99.723 362.257 95 368.251 95 375.348c0 8.644 7.008 15.652 15.652 15.652 8.645 0 15.652-7.008 15.652-15.652 0-2.324-.506-4.53-1.415-6.513 6.475-1.918 11.198-7.912 11.198-15.009 0-.138-.002-.276-.005-.414a15.613 15.613 0 0 0 11.744 5.305Z" clip-rule="evenodd"/></g><defs><filter id="a" width="386.826" height="334" x="63" y="89" color-interpolation-filters="sRGB" filterUnits="userSpaceOnUse"><feFlood flood-opacity="0" result="BackgroundImageFix"/><feColorMatrix in="SourceAlpha" result="hardAlpha" values="0 0 0 0 0 0 0 0 0 0 0 0 0 0 0 0 0 0 127 0"/><feOffset/><feGaussianBlur stdDeviation="16"/><feComposite in2="hardAlpha" operator="out"/><feColorMatrix values="0 0 0 0 0.898039 0 0 0 0 0.956863 0 0 0 0 1 0 0 0 0.5 0"/><feBlend in2="BackgroundImageFix" result="effect1_dropShadow_303_2"/><feBlend in="SourceGraphic" in2="effect1_dropShadow_303_2" result="shape"/></filter></defs></svg>
